<?xml version="1.0" standalone="no"?>
<!DOCTYPE svg PUBLIC "-//W3C//DTD SVG 20010904//EN"
 "http://www.w3.org/TR/2001/REC-SVG-20010904/DTD/svg10.dtd">
<svg version="1.0" xmlns="http://www.w3.org/2000/svg"
 width="700.000000pt" height="700.000000pt" viewBox="0 0 700.000000 700.000000"
 preserveAspectRatio="xMidYMid meet">
<metadata>
Created by potrace 1.11, written by Peter Selinger 2001-2013
</metadata>
<g transform="translate(0.000000,700.000000) scale(0.100000,-0.100000)"
fill="#000000" stroke="none">
<path d="M1120 3695 l0 -1105 1110 0 1110 0 0 827 0 827 -277 278 -278 278
-832 0 -833 0 0 -1105z m1522 408 l138 -138 0 -412 0 -413 -550 0 -550 0 0
550 0 550 412 0 413 0 137 -137z"/>
<path d="M3610 3695 l0 -1105 270 0 c149 0 270 -3 270 -8 0 -4 -121 -129 -270
-277 l-270 -270 0 -415 0 -415 1105 1105 1105 1105 0 277 0 278 -137 0 -138 0
138 138 137 137 0 278 0 277 -1105 0 -1105 0 0 -1105z m1370 542 c0 -1 -184
-187 -410 -412 l-410 -410 0 413 0 412 410 0 c226 0 410 -1 410 -3z m-400
-1232 c-223 -223 -408 -405 -412 -405 -5 0 -8 182 -8 405 l0 405 412 0 413 0
-405 -405z"/>
</g>
</svg>
